<?xml version="1.0" standalone="no"?>
<!DOCTYPE svg PUBLIC "-//W3C//DTD SVG 20010904//EN"
 "http://www.w3.org/TR/2001/REC-SVG-20010904/DTD/svg10.dtd">
<svg version="1.0" xmlns="http://www.w3.org/2000/svg"
 width="225.000000pt" height="225.000000pt" viewBox="0 0 225.000000 225.000000"
 preserveAspectRatio="xMidYMid meet">

<g transform="translate(0.000000,225.000000) scale(0.100000,-0.100000)"
fill="#000000" stroke="none">
<path d="M1037 2046 c-61 -22 -112 -61 -145 -112 -37 -56 -46 -93 -40 -177 10
-149 121 -251 273 -251 84 0 142 23 197 79 52 53 72 99 76 182 5 84 -7 126
-53 186 -68 90 -203 130 -308 93z"/>
<path d="M280 985 l0 -515 48 0 c69 0 225 -27 317 -55 144 -44 313 -137 450
-250 l31 -24 49 41 c125 102 304 198 445 238 86 24 246 50 308 50 l42 0 0 516
0 516 -87 -7 c-267 -21 -536 -131 -716 -291 -20 -19 -39 -34 -41 -34 -3 0 -26
19 -53 42 -107 93 -263 178 -413 226 -94 30 -272 62 -344 62 l-36 0 0 -515z"/>
</g>
</svg>
