<?xml version="1.0" standalone="no"?>
<!DOCTYPE svg PUBLIC "-//W3C//DTD SVG 20010904//EN"
 "http://www.w3.org/TR/2001/REC-SVG-20010904/DTD/svg10.dtd">
<svg version="1.0" xmlns="http://www.w3.org/2000/svg"
 width="360.000000pt" height="360.000000pt" viewBox="0 0 360.000000 360.000000"
 preserveAspectRatio="xMidYMid meet">

<g transform="translate(0.000000,360.000000) scale(0.100000,-0.100000)"
fill="#000000" stroke="none">
<path d="M750 3381 c-244 -66 -434 -244 -517 -486 l-28 -80 0 -1015 0 -1015
28 -80 c84 -247 284 -430 532 -489 63 -15 165 -17 1065 -14 l995 3 82 31 c119
45 188 89 278 179 90 90 134 159 179 278 l31 82 3 994 c2 956 2 998 -17 1071
-38 149 -131 298 -245 391 -79 65 -222 136 -311 154 -59 12 -227 15 -1040 14
-894 0 -975 -2 -1035 -18z m1312 -272 c539 -107 958 -537 1055 -1083 21 -119
21 -333 0 -452 -49 -274 -176 -515 -376 -715 -258 -259 -572 -390 -936 -391
-251 -1 -482 61 -680 181 -37 23 -72 41 -79 41 -6 -1 -116 -29 -244 -64 -128
-35 -234 -60 -236 -57 -2 3 26 114 62 246 l64 240 -42 69 c-192 315 -237 739
-116 1099 166 494 616 854 1132 906 117 12 276 4 396 -20z"/>
<path d="M1645 2889 c-462 -67 -834 -422 -926 -884 -18 -90 -18 -320 0 -410
30 -151 108 -330 191 -441 l39 -52 -26 -96 c-14 -53 -23 -99 -20 -102 3 -4 49
5 103 19 l96 26 52 -39 c111 -83 290 -161 441 -191 90 -18 320 -18 410 0 691
137 1077 862 805 1513 -97 233 -321 463 -553 567 -190 85 -414 118 -612 90z
m-254 -380 c15 -10 34 -34 43 -53 78 -164 156 -341 156 -352 0 -8 -22 -38 -49
-68 -75 -83 -75 -95 -3 -186 85 -106 162 -187 251 -262 152 -127 158 -128 247
-47 30 27 61 49 69 49 8 0 98 -39 200 -86 196 -91 218 -108 229 -174 9 -50
-19 -100 -87 -160 -74 -63 -117 -85 -196 -100 -204 -37 -505 114 -786 395
-281 281 -432 582 -395 786 15 79 37 122 100 196 81 92 151 112 221 62z"/>
</g>
</svg>
